<svg width="96" height="80" viewBox="0 0 96 80" fill="none" xmlns="http://www.w3.org/2000/svg">
<path fill-rule="evenodd" clip-rule="evenodd" d="M37.5893 1.32205C54.4749 -3.12636 72.2941 3.89847 81.6016 18.673L89.4293 16.6108L95.5 39.5679L87.6618 41.6721C86.8352 59.108 74.7923 73.9921 57.9128 78.4396C41.0333 82.887 23.2198 75.8695 13.9089 61.1045L6.07067 63.2088L0 40.1781L7.83822 38.1054C8.65833 20.6629 20.7036 5.77047 37.5893 1.32205ZM79.5395 19.2201C70.604 5.52299 53.9059 -0.918937 38.0864 3.228C22.2774 7.41533 10.9203 21.2472 9.88986 37.5689L12.2466 36.9481C13.4998 21.9155 24.0852 9.30173 38.6723 5.45879C53.2594 1.61585 68.6856 7.37688 77.1828 19.8408L79.5395 19.2201ZM76.6672 19.946L59.0233 24.6279C54.4035 21.1967 48.474 20.0522 42.909 21.5177C37.344 22.9831 32.7473 26.8994 30.4165 32.161L12.7621 36.7798C14.0645 22.0287 24.4796 9.67964 38.7995 5.90752C53.1194 2.1354 68.2668 7.75089 76.6672 19.946ZM15.9605 60.5995C24.8974 74.2952 41.5922 80.7401 57.4137 76.6021C73.2226 72.4148 84.5797 58.5829 85.6102 42.2613L83.2535 42.882C81.9964 57.9129 71.4095 70.523 56.8233 74.3633C42.237 78.2037 26.8131 72.4418 18.3173 59.9788L15.9605 60.5995ZM18.8328 59.8525L18.8389 59.8509C27.2472 72.0277 42.3849 77.6303 56.6953 73.8607C71.0091 70.0902 81.4239 57.7519 82.7379 43.0083L65.094 47.6586C62.766 52.9253 58.1681 56.8467 52.6 58.3145C47.0319 59.7823 41.0984 58.6369 36.4767 55.2022L18.8389 59.8509L18.8328 59.842V59.8525ZM7.73303 60.7573L92.8487 38.3369L87.7775 19.0622L2.65134 41.4827L7.73303 60.7573Z" fill="#0984E3"/>
<path fill-rule="evenodd" clip-rule="evenodd" d="M19.4956 29.7306L24.5983 33.0132L25.1139 31.7401L24.0618 31.172L24.4405 30.1199L25.5873 30.3408L26.0818 29.0257L20.0848 28.1629L19.4956 29.7306ZM23.1464 30.6354L20.8002 29.3203L23.4305 29.8884L23.1464 30.6354Z" fill="#0984E3"/>
<path fill-rule="evenodd" clip-rule="evenodd" d="M21.0422 25.8483L26.208 28.8363L26.8814 27.6369L24.8929 26.469C25.1996 26.038 25.4111 25.5466 25.5136 25.0276C25.4928 24.3592 25.0806 23.7657 24.4615 23.5126C24.0835 23.2436 23.615 23.1341 23.1569 23.2075C22.5783 23.3127 22.1469 23.9545 21.8733 24.4279L21.0422 25.8483ZM24.251 25.1855C24.2472 25.4565 24.1549 25.7188 23.988 25.9325L22.7044 25.1855L22.7886 25.0592C22.867 24.8914 22.9738 24.7383 23.1042 24.6068C23.3146 24.4595 23.6303 24.6173 23.8302 24.7331C24.0181 24.8312 24.1667 24.9909 24.251 25.1855Z" fill="#0984E3"/>
<path fill-rule="evenodd" clip-rule="evenodd" d="M23.7987 21.4715L28.3333 25.2907L29.2171 24.228L27.4495 22.7446C27.8277 22.3728 28.1219 21.9244 28.3123 21.4294C28.4141 20.7738 28.1164 20.1204 27.5547 19.7671C27.2284 19.437 26.7877 19.2449 26.3238 19.2305C25.7226 19.3489 25.193 19.7008 24.8508 20.209L23.7987 21.4715ZM27.0392 21.3558C26.9818 21.621 26.8462 21.8628 26.6499 22.0502L25.5137 21.0928L25.6083 20.977C25.7188 20.8293 25.8499 20.6982 25.9976 20.5878C26.2396 20.4825 26.5132 20.6824 26.692 20.8297C26.8651 20.9597 26.9878 21.1456 27.0392 21.3558Z" fill="#0984E3"/>
<path fill-rule="evenodd" clip-rule="evenodd" d="M30.9951 22.1975L32.0472 21.3137L30.5112 19.5252L30.9004 19.199C31.1635 19.0096 31.4055 19.0938 31.6685 19.3673C31.801 19.5051 31.9388 19.675 32.0874 19.858C32.2337 20.0384 32.3905 20.2315 32.5628 20.4194C32.6427 20.5076 32.7392 20.5791 32.8468 20.6299L34.0042 19.6619V19.5988C33.9201 19.5941 33.8378 19.5726 33.7622 19.5357C33.5726 19.3853 33.2488 19.0276 32.9501 18.6976C32.7682 18.4966 32.5955 18.3059 32.4681 18.1785C32.2054 17.8698 31.7533 17.8065 31.416 18.0312C31.6584 17.5174 31.5343 16.9054 31.1109 16.5266C30.8694 16.1226 30.4458 15.862 29.9764 15.8285C29.5069 15.7949 29.0506 15.9927 28.7541 16.3583L27.197 17.6629L30.9951 22.1975ZM30.2271 18.3994L29.8694 18.7045L28.933 17.5893C29.4485 17.1474 29.6905 16.979 30.1429 17.5156C30.3744 17.7997 30.5427 18.1469 30.2271 18.3994Z" fill="#0984E3"/>
<path fill-rule="evenodd" clip-rule="evenodd" d="M35.8875 18.7571C37.0974 18.0521 37.1605 17.221 36.4977 16.0637L35.2983 13.97C35.0842 13.5176 34.6766 13.1867 34.19 13.0702C33.7033 12.9536 33.19 13.064 32.7943 13.3703C32.3256 13.5544 31.9666 13.9423 31.8191 14.4237C31.6715 14.9052 31.7517 15.4276 32.0368 15.8427L33.2256 17.9469C33.899 19.1043 34.6775 19.462 35.8875 18.7571ZM33.3203 14.3066C33.7096 14.0857 33.9516 14.4434 34.1409 14.759L35.3929 16.8527C35.5613 17.1473 35.7822 17.5892 35.3929 17.8207C35.0037 18.0521 34.7091 17.6418 34.5407 17.3472L33.3203 15.243C33.0993 14.9379 32.931 14.5276 33.3203 14.3066Z" fill="#0984E3"/>
<path d="M38.7598 17.1895L35.5298 12.0657L36.8239 11.5923L38.9281 15.2431L38.1706 11.0978L39.4752 10.6244L40.2853 16.6319L38.7598 17.1895Z" fill="#0984E3"/>
<path fill-rule="evenodd" clip-rule="evenodd" d="M41.3269 10.214L41.1691 16.2741L42.5052 16.0532V14.8853L43.5574 14.6854L43.9677 15.7375L45.3565 15.4745L42.9682 9.89833L41.3269 10.214ZM42.4527 13.7806L42.3475 11.1083L43.2418 13.6333L42.4527 13.7806Z" fill="#0984E3"/>
<path d="M45.4827 15.5061L45.2407 9.60378L46.6295 9.55118L46.7978 14.2857L48.4917 14.2225V15.4009L45.4827 15.5061Z" fill="#0984E3"/>
<path d="M52.1109 13.8332L52.0373 14.2436C51.9636 14.5802 52.0373 14.8959 52.4476 14.98C52.8579 15.0642 52.9631 14.7801 53.0262 14.4855C53.1209 14.0016 52.7527 13.7386 52.4371 13.4334C52.093 13.1597 51.7947 12.833 51.5533 12.4655C51.3472 12.09 51.2873 11.6516 51.3849 11.2345C51.431 10.7659 51.6881 10.3437 52.0834 10.0877C52.4786 9.83174 52.969 9.76977 53.4155 9.91939C53.9195 9.9757 54.3697 10.2604 54.6366 10.6916C54.9035 11.1227 54.9576 11.6526 54.7833 12.1288L53.5207 11.8868C53.5733 11.5502 53.6785 11.0872 53.2367 10.961C53.1251 10.922 53.0022 10.9316 52.8982 10.9877C52.7941 11.0437 52.7184 11.1409 52.6896 11.2556C52.6035 11.5531 52.7129 11.8727 52.9631 12.0552C53.342 12.3765 53.6939 12.7284 54.0152 13.1073C54.3126 13.5411 54.4013 14.0849 54.2572 14.5908C54.2133 15.08 53.9497 15.523 53.5406 15.795C53.1316 16.067 52.6212 16.1388 52.153 15.9901C50.9115 15.7376 50.5222 14.938 50.6695 14.1804L50.7852 13.5597L52.1109 13.8332Z" fill="#0984E3"/>
<path d="M54.352 16.3268L56.3615 10.7611L59.3495 11.8132L58.9181 12.96L57.2242 12.3498L56.856 13.4019L58.4868 13.9911L58.087 15.1064L56.4562 14.5172L56.0564 15.7376L57.824 16.3794L57.4241 17.4946L54.352 16.3268Z" fill="#0984E3"/>
<path fill-rule="evenodd" clip-rule="evenodd" d="M61.5799 12.9284L57.5609 17.463L58.7813 18.189L59.4862 17.2631L60.4331 17.7892L60.0438 18.8939L61.2643 19.5357L63.0318 13.7491L61.5799 12.9284ZM60.1175 16.4109L61.7693 14.3067L60.8224 16.8107L60.1175 16.4109Z" fill="#0984E3"/>
<path d="M61.3591 19.6619L65.0205 15.001L66.0726 15.8638L63.1477 19.5882L64.4839 20.6403L63.7474 21.5767L61.3591 19.6619Z" fill="#0984E3"/>
<path fill-rule="evenodd" clip-rule="evenodd" d="M32.6154 58.2112L27.9861 62.1356L29.1013 62.9983L29.9325 62.1882L30.8057 62.851L30.2586 63.9032L31.3739 64.7554L33.941 59.2634L32.6154 58.2112ZM30.69 61.4412L32.6153 59.5685L31.3212 61.9252L30.69 61.4412Z" fill="#0984E3"/>
<path fill-rule="evenodd" clip-rule="evenodd" d="M35.0878 60.0314L32.3313 65.2919L33.5833 65.8706L34.6354 63.8295C35.0823 64.1157 35.584 64.3056 36.1084 64.3871C36.7592 64.3513 37.3299 63.9407 37.5708 63.335C37.819 62.9446 37.9093 62.4744 37.8233 62.0199C37.6865 61.4517 37.0237 61.0414 36.5503 60.7994L35.0878 60.0314ZM35.898 63.1877C35.6235 63.1969 35.3537 63.1155 35.13 62.9562L35.8243 61.6516L35.9506 61.7147C36.1194 61.7881 36.2756 61.8875 36.4135 62.0093C36.5713 62.2198 36.4346 62.5354 36.3294 62.7458C36.2404 62.9381 36.0881 63.0941 35.898 63.1877Z" fill="#0984E3"/>
<path fill-rule="evenodd" clip-rule="evenodd" d="M38.6756 61.9042L36.8239 67.5224L38.1811 68.0169L38.907 65.818C39.3945 66.0313 39.9216 66.1388 40.4536 66.1336C41.1375 66.0495 41.5057 65.4182 41.7056 64.808C41.8794 64.3795 41.8794 63.9003 41.7056 63.4718C41.3812 62.9372 40.8533 62.5574 40.2432 62.4197L38.6756 61.9042ZM39.9907 64.8606C39.7232 64.9108 39.4466 64.8739 39.2016 64.7554L39.6961 63.3982H39.8329C40.0111 63.4418 40.1814 63.5128 40.3379 63.6086C40.4957 63.7874 40.4115 64.1241 40.3379 64.3451C40.2875 64.5529 40.1643 64.7358 39.9907 64.8606Z" fill="#0984E3"/>
<path fill-rule="evenodd" clip-rule="evenodd" d="M41.5478 68.9638L42.9155 69.1637L43.2943 66.807L43.7467 66.8701C44.0623 66.9438 44.136 67.2068 44.1255 67.5645C44.1209 67.7192 44.0888 67.8975 44.0539 68.0917C44.008 68.3467 43.9571 68.6291 43.9571 68.9217C43.9414 69.0369 43.9414 69.1537 43.9571 69.2689L45.4616 69.4899V69.4162C45.41 69.3517 45.374 69.276 45.3564 69.1953C45.3454 68.9917 45.3891 68.6183 45.4333 68.2407C45.4735 67.8963 45.5142 67.5484 45.5142 67.3225C45.5512 66.9396 45.3138 66.5834 44.9461 66.4703C45.4923 66.3155 45.87 65.8176 45.872 65.2499C46.0508 64.082 45.5563 63.5454 44.4306 63.3771L42.421 63.0825L41.5478 68.9638ZM43.894 65.8706L43.4205 65.8075L43.6415 64.3661C44.3148 64.4503 44.5989 64.5344 44.4937 65.2288C44.4411 65.5865 44.2938 65.9337 43.894 65.8706Z" fill="#0984E3"/>
<path fill-rule="evenodd" clip-rule="evenodd" d="M48.4076 69.7529C49.8069 69.6898 50.2383 68.9849 50.2383 67.6487L50.2488 65.292C50.2845 64.7908 50.0886 64.3009 49.7173 63.9625C49.3461 63.624 48.8402 63.4742 48.3445 63.556C47.8453 63.4935 47.3446 63.6603 46.9828 64.0099C46.621 64.3595 46.4369 64.8541 46.4822 65.3551V67.7644C46.5033 69.0901 47.0083 69.816 48.4076 69.7529ZM48.3023 64.5765C48.8073 64.566 48.8073 65.0079 48.8073 65.3656L48.7968 67.796C48.8073 68.1327 48.7863 68.6377 48.3339 68.6482C47.8815 68.6587 47.8184 68.1537 47.8184 67.817V65.3867C47.8184 65.3726 47.8183 65.3584 47.8183 65.3441C47.8175 64.986 47.8166 64.5867 48.3023 64.5765Z" fill="#0984E3"/>
<path d="M52.6055 69.1953L50.2382 63.6296L51.606 63.3666L53.0368 67.291L52.9632 63.0825L54.3309 62.83L54.1626 68.8796L52.6055 69.1953Z" fill="#0984E3"/>
<path fill-rule="evenodd" clip-rule="evenodd" d="M55.1411 62.525L55.9092 68.5325L57.1506 68.0275L56.9192 66.8912L57.9713 66.523L58.5499 67.5751L59.8756 67.1016L56.7193 61.9568L55.1411 62.525ZM56.7929 65.9022L56.2879 63.272L57.5504 65.6287L56.7929 65.9022Z" fill="#0984E3"/>
<path d="M60.7278 66.6912L57.9292 61.4306L59.1496 60.7678L61.3906 64.9762L62.8846 64.1766L63.4423 65.2288L60.7278 66.6912Z" fill="#0984E3"/>
<path d="M65.6621 61.1676L65.9356 61.4938C66.1566 61.7463 66.4406 61.9041 66.7773 61.6095C66.8825 61.5138 66.9424 61.3782 66.9424 61.236C66.9424 61.0938 66.8825 60.9582 66.7773 60.8625C66.4617 60.4838 66.0198 60.61 65.6095 60.6837C65.1817 60.7799 64.742 60.8118 64.3048 60.7784C63.8886 60.7039 63.5143 60.4793 63.2527 60.1471C62.9127 59.8212 62.7396 59.3582 62.7827 58.8892C62.8257 58.4202 63.08 57.9963 63.4737 57.7378C63.8281 57.3746 64.3305 57.1958 64.8347 57.2534C65.3389 57.311 65.788 57.5986 66.0513 58.0323L65.0834 58.874C64.8519 58.6215 64.5468 58.2533 64.1891 58.5268C64.0859 58.5866 64.0138 58.6883 63.9916 58.8055C63.9694 58.9226 63.9992 59.0437 64.0734 59.1371C64.2539 59.39 64.5754 59.4999 64.873 59.4106C65.376 59.3052 65.8858 59.2349 66.3985 59.2002C66.922 59.2372 67.401 59.5077 67.7032 59.9367C68.0598 60.27 68.246 60.7473 68.2091 61.2341C68.1723 61.7209 67.9165 62.1648 67.5138 62.4407C67.22 62.7827 66.7915 62.9794 66.3407 62.9794C65.8898 62.9794 65.4614 62.7827 65.1676 62.4407L64.6941 62.0304L65.6621 61.1676Z" fill="#0984E3"/>
<path d="M69.5235 60.326L65.0204 56.4858L67.1247 54.066L68.0295 54.834L66.8616 56.2018L67.6928 56.9067L68.8186 55.581L69.7129 56.3491L68.5871 57.6747L69.5656 58.5059L70.786 57.0645L71.6908 57.8325L69.5235 60.326Z" fill="#0984E3"/>
<path fill-rule="evenodd" clip-rule="evenodd" d="M67.8821 52.856L72.2484 57.0644L73.0164 55.9071L72.1116 55.1706L72.6798 54.2343L73.7319 54.6656L74.4683 53.4978L68.7554 51.5093L67.8821 52.856ZM71.27 54.4552L69.2289 52.7298L71.6909 53.7714L71.27 54.4552Z" fill="#0984E3"/>
<path d="M74.8365 52.614L69.4392 50.3099L69.9758 49.0264L74.342 50.8675L75.0049 49.3104L76.057 49.7628L74.8365 52.614Z" fill="#0984E3"/>
<rect x="4.26392" y="42.3783" width="85.3787" height="17.3808" transform="rotate(-14.76 4.26392 42.3783)" fill="#0984E3"/>
<path d="M60.4611 30.7396L63.5786 29.9182L66.404 40.6424L63.2865 41.4638L60.4611 30.7396ZM66.4303 38.0851L66.555 38.0522C67.0642 37.9181 67.4173 37.8028 67.6141 37.7065C67.8187 37.597 67.9496 37.4403 68.007 37.2363C68.072 37.0191 68.0564 36.7065 67.96 36.2985C67.8439 35.7734 67.7064 35.2095 67.5476 34.6068C67.3916 34.0145 67.232 33.4509 67.0688 32.916C66.9413 32.5162 66.7957 32.2378 66.6321 32.0809C66.4789 31.9212 66.2773 31.8521 66.0274 31.8735C65.7801 31.9053 65.4331 31.9801 64.9863 32.0978L64.8616 32.1306L64.2332 29.7458L64.3579 29.7129C65.1893 29.4939 65.8899 29.3482 66.4598 29.2758C67.0401 29.2007 67.5327 29.1932 67.9374 29.2532C68.3318 29.316 68.6685 29.4551 68.9475 29.6706C69.2266 29.886 69.4662 30.184 69.6665 30.5647C69.8455 30.9065 70.0111 31.324 70.1633 31.8173C70.3231 32.2975 70.5112 32.9481 70.7275 33.7691C70.9465 34.6004 71.1048 35.2644 71.2023 35.761C71.3102 36.2549 71.3705 36.6946 71.3831 37.0802C71.3964 37.5101 71.3347 37.8876 71.198 38.2125C71.0614 38.5374 70.8369 38.8244 70.5247 39.0734C70.2021 39.3251 69.7697 39.5612 69.2278 39.7818C68.6962 39.9996 68.0147 40.2181 67.1834 40.4371L67.0587 40.4699L66.4303 38.0851Z" fill="white"/>
<path d="M55.316 32.0951L58.4335 31.2738L61.2589 41.998L58.1414 42.8193L55.316 32.0951Z" fill="white"/>
<path d="M46.8829 34.317L50.0004 33.4956L52.8258 44.2198L49.7083 45.0411L46.8829 34.317ZM52.8193 41.5377L56.155 40.6589L56.8162 43.1685L53.4805 44.0473L52.8193 41.5377Z" fill="white"/>
<path d="M38.6134 36.4957L38.8784 36.4259L41.2351 40.3724L41.1427 47.2979L38.0252 48.1192L38.6134 36.4957ZM44.445 44.3942L41.8419 45.08L41.8642 42.507L43.1111 42.1785L39.5798 36.2411L42.4324 35.4895L48.6715 45.3143L45.4916 46.1521L44.445 44.3942Z" fill="white"/>
<path d="M31.2807 49.4128C31.0361 49.0327 30.8098 48.6589 30.6019 48.2914L29.6513 46.7082C29.3372 46.1908 29.0964 45.8042 28.929 45.5483C28.7637 45.2584 28.6346 45.0424 28.5415 44.9002L25.5348 39.9414L28.7146 39.1037L34.4549 49.0599L31.5401 49.8278L31.2807 49.4128ZM32.5945 44.4659L32.5959 38.0811L35.7134 37.2597L35.5403 43.0563L35.481 45.1723C35.4528 45.8243 35.4319 46.441 35.4184 47.0224C35.4185 47.4447 35.4058 47.8814 35.3802 48.3327L35.359 48.8217L35.1408 48.8792L32.5945 44.4659Z" fill="white"/>
</svg>
